<svg width="48" height="49" viewBox="0 0 48 49" fill="none" xmlns="http://www.w3.org/2000/svg">
<mask id="mask0_4339_32104" style="mask-type:luminance" maskUnits="userSpaceOnUse" x="0" y="0" width="48" height="49">
<path d="M48 0.804214H0V48.8042H48V0.804214Z" fill="white"/>
</mask>
<g mask="url(#mask0_4339_32104)">
<path d="M21.0584 1.65621C21.9227 1.14451 22.8994 0.852835 23.9028 0.806805C24.9061 0.760774 25.9054 0.961794 26.8129 1.39221C27.7171 1.81942 28.5011 2.46428 29.0948 3.26899C29.6885 4.0737 30.0733 5.01312 30.2147 6.00309L30.1518 6.03261C29.822 6.17994 29.5004 6.34523 29.1887 6.52773C29.0993 5.24576 28.5215 4.04693 27.5744 3.17838C26.6272 2.30983 25.383 1.83776 24.0981 1.85948C22.8132 1.88121 21.5856 2.39508 20.6683 3.29515C19.7511 4.19523 19.2142 5.41291 19.1682 6.69717C19.1596 8.55213 19.1706 10.41 19.1634 12.2664V13.4935C19.1696 15.4051 19.1634 17.3153 19.1672 19.2269C19.172 19.6377 19.172 20.0498 19.1672 20.4602C19.1624 21.6902 19.1648 22.9212 19.1672 24.1507C18.8123 24.3557 18.4528 24.5517 18.0853 24.7344C18.0781 23.1024 18.0829 21.474 18.0829 19.8434C18.0829 19.4325 18.0805 19.0219 18.0781 18.611C18.0868 17.1103 18.0781 15.6093 18.0829 14.1096C18.0829 13.6952 18.0837 13.2807 18.0853 12.8661C18.0767 10.9569 18.0853 9.04773 18.0805 7.13901C18.081 6.76515 18.1051 6.39169 18.1525 6.02085C18.2785 5.12186 18.605 4.26271 19.1081 3.50705C19.6111 2.75139 20.2777 2.11858 21.0584 1.65549V1.65621Z" fill="#003C8F"/>
<path d="M29.1813 8.59989C29.5386 8.38917 29.9013 8.18566 30.2632 7.98166C30.2632 9.61126 30.2624 11.2413 30.2608 12.8717C30.2632 13.2835 30.2632 13.6968 30.2608 14.1084V18.6326C29.9059 18.8347 29.5502 19.0357 29.1938 19.2357C29.1779 17.3203 29.1938 15.4039 29.1851 13.4885C29.1789 13.0805 29.1779 12.6756 29.1827 12.2685C29.1899 11.0462 29.1923 9.82245 29.1813 8.59989Z" fill="#003C8F"/>
<path d="M29.1945 20.4667C29.5529 20.2656 29.9098 20.0612 30.2653 19.8535C30.2716 21.7651 30.2615 23.6767 30.2701 25.5895C30.2768 25.9709 30.2569 26.3523 30.2106 26.7309C30.0724 27.6786 29.7125 28.5803 29.1602 29.3626C28.6078 30.145 27.8786 30.7859 27.0318 31.2333C26.3872 31.6035 25.6607 31.8078 24.9177 31.8278C24.0126 31.7973 23.0697 31.943 22.2057 31.6085C21.1458 31.2467 20.207 30.5982 19.4936 29.735C18.7801 28.8718 18.3199 27.8277 18.1641 26.7187C18.5083 26.5702 18.8427 26.3999 19.1653 26.2089C19.2262 27.0224 19.4836 27.8089 19.9153 28.5009C20.3471 29.193 20.9405 29.7699 21.6444 30.1821C22.3482 30.5943 23.1417 30.8295 23.9565 30.8675C24.7713 30.9055 25.5832 30.7452 26.3224 30.4003C27.1419 30.0194 27.8418 29.4219 28.3464 28.6723C28.8511 27.9226 29.1413 27.0494 29.1858 26.1468C29.2031 24.2544 29.1873 22.3608 29.1945 20.4667Z" fill="#003C8F"/>
<path d="M12.7796 6.39549C13.587 5.92585 14.4915 5.64798 15.4233 5.58331C16.3551 5.51865 17.2893 5.66892 18.1539 6.02253C18.1064 6.39337 18.0824 6.76683 18.0819 7.14069C17.3976 6.80492 16.646 6.62906 15.8838 6.6264C15.1216 6.62374 14.3688 6.79436 13.6822 7.12535C12.9956 7.45635 12.3932 7.93906 11.9206 8.53702C11.4479 9.13498 11.1174 9.83255 10.9539 10.577C10.7729 11.4329 10.8222 12.3214 11.0967 13.152C11.3711 13.9826 11.861 14.7255 12.5163 15.305C13.0555 15.7378 13.6385 16.113 14.2558 16.4246C15.5328 17.1494 16.8039 17.8848 18.08 18.6125C18.0824 19.0233 18.0862 19.434 18.0848 19.8449C16.423 18.8874 14.7585 17.9339 13.0913 16.9843C12.7583 16.7982 12.437 16.5917 12.1294 16.3661C10.9541 15.4673 10.1533 14.1652 9.88155 12.7109C9.7297 11.6847 9.80342 10.6377 10.0976 9.64294C10.5736 8.27408 11.5253 7.12167 12.7796 6.39549Z" fill="#00C8E9"/>
<path d="M19.9075 6.94246C21.3266 7.76998 22.7611 8.57061 24.1795 9.39717C24.533 9.60213 24.8856 9.80517 25.2413 10.0065C26.5592 10.752 27.873 11.5061 29.1826 12.2688C29.1778 12.6768 29.1787 13.0817 29.185 13.4887C27.5147 12.5337 25.8448 11.5773 24.1752 10.6197C23.7698 10.3905 23.3753 10.1441 22.9646 9.92206C21.947 9.34318 20.9246 8.77005 19.9222 8.17005C19.8858 7.76184 19.8809 7.35142 19.9075 6.94246Z" fill="#00C8E9"/>
<path d="M30.2652 12.8707C31.902 13.8281 33.556 14.7566 35.1996 15.7046C35.5307 15.8893 35.8518 16.0914 36.1615 16.3101C36.8036 16.7792 37.3428 17.3748 37.7459 18.0602C38.149 18.7457 38.4075 19.5064 38.5053 20.2956C38.4842 21.1627 38.6188 22.0603 38.3251 22.8974C37.8625 24.4142 36.8166 25.6854 35.4173 26.4314C34.6224 26.8539 33.7455 27.0993 32.8469 27.151C31.9482 27.2027 31.049 27.0593 30.2109 26.7307C30.2573 26.3521 30.2772 25.9707 30.2705 25.5893C31.2607 26.066 32.3776 26.2134 33.4576 26.0097C34.3162 25.8484 35.1174 25.4649 35.7814 24.8973C36.4454 24.3297 36.949 23.598 37.242 22.775C37.532 21.9543 37.5998 21.0716 37.4385 20.2162C37.2773 19.3609 36.8927 18.5634 36.3237 17.9047C35.6671 17.099 34.7018 16.6615 33.8227 16.1448C32.6396 15.463 31.4544 14.7841 30.2671 14.1081C30.2671 13.6958 30.2671 13.2825 30.2652 12.8707Z" fill="#00C8E9"/>
<path d="M19.1657 19.2283C20.8299 20.2029 22.5137 21.1437 24.1817 22.1112C24.5389 22.3192 24.8969 22.5253 25.256 22.7294C26.24 23.2814 27.218 23.8476 28.201 24.4056C28.3085 24.4826 28.4989 24.5369 28.4605 24.7123C28.4729 25.0689 28.4542 25.4258 28.4441 25.7853C27.0281 24.9602 25.6006 24.1519 24.1801 23.3345C23.8281 23.1322 23.4761 22.9322 23.1241 22.7345C21.8062 21.9734 20.4821 21.2225 19.1641 20.4614C19.1705 20.0513 19.1705 19.6373 19.1657 19.2283Z" fill="#00C8E9"/>
<path d="M31.2056 5.69421C32.4913 5.43067 33.8272 5.57602 35.0261 6.10989C35.9338 6.51073 36.7267 7.13235 37.3326 7.91809C37.9385 8.70383 38.3382 9.62871 38.4951 10.6085C38.4951 11.5821 38.6297 12.5961 38.2688 13.5281C37.8857 14.6522 37.1838 15.6406 36.2487 16.3728L36.1609 16.3104C35.8518 16.0915 35.5314 15.8893 35.2009 15.7044L35.2997 15.7363C35.8586 15.3618 36.3367 14.8792 36.7061 14.317C37.0754 13.7548 37.3284 13.1243 37.4502 12.4627C37.6107 11.4833 37.4857 10.4785 37.0902 9.56829C36.8038 8.94195 36.392 8.38101 35.8802 7.92018C35.3684 7.45935 34.7675 7.10843 34.1146 6.88912C33.4618 6.66981 32.7709 6.58677 32.0847 6.64516C31.3985 6.70354 30.7315 6.90209 30.1251 7.22853C28.4946 8.14701 26.8808 9.09213 25.2493 10.0058C24.8933 9.80469 24.5408 9.60093 24.1875 9.39645C25.8541 8.43381 27.5283 7.48869 29.1949 6.52845C29.5065 6.34594 29.828 6.18065 30.1577 6.03333C30.5007 5.90035 30.8509 5.78696 31.2068 5.69373L31.2056 5.69421Z" fill="#FFAF89"/>
<path d="M22.9681 9.92181C23.3787 10.1426 23.7728 10.3903 24.1786 10.6195C22.5121 11.5884 20.833 12.5335 19.1641 13.4947V12.2676C20.4361 11.5661 21.6627 10.7875 22.9561 10.1273C22.9594 10.0773 22.9657 9.97317 22.9681 9.92181Z" fill="#FFAF89"/>
<path d="M13.8438 15.3084C15.2598 14.4998 16.6863 13.7059 18.0867 12.8697C18.0867 13.2841 18.0859 13.6986 18.0843 14.1132C17.0197 14.7314 15.9406 15.3271 14.8813 15.9549C14.5227 15.7606 14.1762 15.5447 13.8438 15.3084Z" fill="#FFAF89"/>
<path d="M12.1273 16.3663C12.435 16.592 12.7563 16.7984 13.0894 16.9845C12.0923 17.636 11.3635 18.6252 11.0369 19.7706C10.7103 20.916 10.8077 22.1408 11.3113 23.2202C11.8214 24.3018 12.7004 25.1661 13.7904 25.6579C14.8804 26.1498 16.11 26.237 17.2585 25.9039C18.0557 25.6169 18.817 25.2384 19.527 24.7759C20.727 24.0977 21.908 23.3817 23.1282 22.7359C23.4802 22.9335 23.8322 23.1335 24.1842 23.3359C22.5101 24.2948 20.8365 25.2529 19.1634 26.2101C18.8408 26.4012 18.5063 26.5716 18.1621 26.7201C17.3766 27.0341 16.5352 27.184 15.6897 27.1606C14.8441 27.1372 14.0123 26.941 13.2454 26.5841C12.2094 26.1097 11.3341 25.3438 10.7263 24.38C10.1185 23.4162 9.80462 22.2962 9.82304 21.1569C9.79457 20.2321 9.9892 19.3139 10.3905 18.4802C10.7918 17.6464 11.3879 16.9215 12.1285 16.3668L12.1273 16.3663Z" fill="#FFAF89"/>
<path d="M30.2662 18.6321C31.328 18.0081 32.4137 17.4221 33.4637 16.7772C33.826 16.9781 34.1874 17.1825 34.5481 17.3904C33.1361 18.239 31.6897 19.0298 30.2653 19.8552C29.9091 20.0632 29.5521 20.2676 29.1944 20.4684C27.8852 21.2261 26.5633 21.9605 25.2617 22.7306L24.1875 22.1124C25.8541 21.1464 27.5331 20.2022 29.1997 19.2372C29.555 19.0367 29.9105 18.835 30.2662 18.6321Z" fill="#FFAF89"/>
<path d="M30.371 35.5135C30.7471 35.6766 31.0949 35.8983 31.4016 36.1704C31.206 36.4756 31.0176 36.7826 30.8256 37.0898C30.5047 36.8671 30.167 36.6693 29.8281 36.4776C30.0116 36.1585 30.1926 35.8372 30.371 35.5135Z" fill="#003C8F"/>
<path d="M11.3359 36.628C11.6959 36.316 12.0403 35.9887 12.4054 35.6824C12.6291 36.2304 12.7275 36.8215 12.6934 37.4124C12.6972 38.2764 12.6934 39.1404 12.6934 40.0044C12.6921 40.0813 12.7064 40.1576 12.7352 40.2289C12.7641 40.3002 12.807 40.3649 12.8614 40.4193C12.9161 40.474 12.9812 40.5171 13.0528 40.5464C13.1244 40.5757 13.2011 40.5904 13.2785 40.5897C13.7806 40.615 14.2837 40.5622 14.7696 40.4332C14.7317 40.0428 14.6736 39.6537 14.6535 39.2623C15.0545 39.014 15.472 38.7934 15.9031 38.602C15.9703 39.1137 15.9905 39.6309 16.0723 40.1407C16.1048 40.2556 16.1726 40.3574 16.2662 40.4316C16.3598 40.5058 16.4743 40.5486 16.5936 40.554C17.1115 40.6201 17.6376 40.5761 18.1373 40.4246C18.084 40.0231 18.0509 39.6204 18.0111 39.2179C18.4339 39.0129 18.8542 38.8022 19.2737 38.5924C19.3217 39.0914 19.3611 39.5913 19.4251 40.0908C19.4469 40.2091 19.5063 40.3172 19.5944 40.399C19.6825 40.4809 19.7947 40.5321 19.9143 40.5451C20.4469 40.6373 20.9942 40.5943 21.5059 40.42C21.3742 39.8625 21.1876 39.3193 20.9487 38.7986C21.3377 38.4967 21.7193 38.1854 22.1146 37.8921C22.4536 38.646 22.6318 39.4622 22.6378 40.2888C22.5268 40.7951 22.3099 41.2722 22.0013 41.6887C21.6142 42.0198 21.1199 42.1989 20.6105 42.1927C19.9356 42.2512 19.1098 42.1999 18.7013 41.578C18.4207 42.0604 17.8054 42.1168 17.3043 42.1864C16.6174 42.2522 15.7697 42.2174 15.3456 41.5838C15.0622 42.0324 14.4876 42.1118 14.0016 42.1792C13.4247 42.2784 12.8315 42.2124 12.2904 41.9889C12.0628 41.834 11.8779 41.6242 11.7529 41.3788C11.6278 41.1335 11.5666 40.8606 11.575 40.5854C11.5325 39.2659 11.6679 37.9212 11.3359 36.628Z" fill="#003C8F"/>
<path d="M37.1562 36.6408C37.5093 36.3158 37.8628 35.9928 38.2286 35.6824C38.5773 36.3736 38.488 37.1654 38.4991 37.9113C38.489 39.2431 38.523 40.5753 38.475 41.9035C38.1652 42.0842 37.8458 42.2474 37.5249 42.4053C37.5158 41.267 37.4529 40.1308 37.4164 38.9935C37.4148 38.2022 37.3276 37.4133 37.1562 36.6408Z" fill="#003C8F"/>
<path d="M35.41 35.9191C35.8587 36.0817 36.2681 36.3368 36.612 36.6677C36.3813 37.0214 36.1641 37.3812 35.94 37.7412C35.5649 37.482 35.172 37.2533 34.7812 37.0212C34.9893 36.6525 35.2104 36.2921 35.41 35.9191Z" fill="#003C8F"/>
<path d="M18.2462 36.3864C18.6806 36.5684 19.0817 36.8214 19.4332 37.1349C19.2136 37.4978 18.9835 37.8549 18.7684 38.2204C18.3876 37.968 18.0004 37.7253 17.6016 37.5016C17.813 37.128 18.0336 36.7603 18.2462 36.3864Z" fill="#003C8F"/>
<path d="M29.8497 36.8553C30.2261 37.0227 30.5807 37.2353 30.9057 37.4885C31.0257 37.2797 31.1457 37.0709 31.2626 36.8592C31.7013 37.0378 32.1059 37.2907 32.4587 37.6068C32.2391 37.9668 32.0176 38.3268 31.7982 38.6868C31.4622 38.4614 31.1186 38.2536 30.7691 38.0537C30.6411 38.2684 30.5081 38.4797 30.37 38.6877C29.9934 38.4302 29.604 38.192 29.2031 37.9742C29.417 37.6003 29.6326 37.2273 29.8497 36.8553Z" fill="#003C8F"/>
<path d="M40.3317 38.7693C40.4899 38.2879 40.6555 37.8093 40.8136 37.3267C41.7388 37.8175 42.6117 38.62 42.78 39.6945C42.8305 40.0395 42.8083 40.3913 42.7147 40.7272C42.6211 41.063 42.4583 41.3756 42.2366 41.6448C41.961 41.8657 41.6438 42.0289 41.3039 42.1246C40.9639 42.2204 40.6082 42.2468 40.2578 42.2023C39.8037 42.1732 39.2143 42.0801 39.0391 41.5939C38.9403 40.9633 38.9587 40.3199 39.0933 39.696C39.3728 39.715 39.6521 39.7436 39.9312 39.7816C39.948 40.0252 39.7648 40.4477 40.1056 40.5341C40.682 40.6252 41.2714 40.5888 41.8322 40.4275C41.5487 39.7117 41.0157 39.1227 40.3317 38.7693Z" fill="#003C8F"/>
<path d="M7.80918 37.5631C8.24263 37.7456 8.64291 37.9985 8.99382 38.3116C8.76846 38.6716 8.5479 39.0374 8.31606 39.3943C7.94814 39.1317 7.55646 38.9054 7.16406 38.6755C7.37262 38.3008 7.5903 37.9317 7.80918 37.5631Z" fill="#003C8F"/>
<path d="M35.2108 38.7979C35.6027 38.4986 35.9788 38.1797 36.3806 37.8941C36.7312 38.674 36.9034 39.5224 36.8846 40.3773C36.7541 40.9017 36.5064 41.3896 36.16 41.8044C35.6711 42.0926 35.1095 42.2337 34.5424 42.2109C34.2645 42.2322 33.9852 42.1968 33.7214 42.1068C33.4577 42.0169 33.2149 41.8743 33.0079 41.6877C32.8806 41.8419 32.7229 41.968 32.5445 42.0581C32.3661 42.1482 32.171 42.2004 31.9714 42.2114C31.7719 42.2223 31.5722 42.1918 31.385 42.1218C31.1978 42.0517 31.0272 41.9437 30.8839 41.8044C30.6701 41.996 30.4097 42.1282 30.1288 42.1877C29.8479 42.2473 29.5562 42.232 29.2831 42.1435C29.1841 42.5349 29.018 42.9062 28.792 43.2408C28.3641 43.5871 27.8536 43.8166 27.3105 43.9068C26.4289 44.1448 25.4938 44.0894 24.6465 43.7489C24.4383 43.6466 24.2564 43.4979 24.1149 43.3141C23.9734 43.1303 23.8761 42.9164 23.8305 42.689C23.6739 41.6491 23.8415 40.5861 24.3105 39.6449C24.6091 39.7324 24.9045 39.8294 25.1968 39.936C24.9316 40.5469 24.8323 41.2169 24.9088 41.8785C24.9789 42.2515 25.4051 42.3271 25.7198 42.3825C26.5387 42.4657 27.3659 42.3693 28.1438 42.1001C28.0651 41.261 27.9238 40.429 27.7209 39.611C28.1219 39.3645 28.5275 39.126 28.9339 38.8877C29.05 39.3437 29.1184 39.8153 29.2699 40.2624C29.4362 40.7803 30.4699 40.7057 30.4415 40.1145C30.4737 39.8201 30.4895 39.5251 30.5236 39.2309H31.5316C31.5335 39.6555 31.5335 40.0802 31.5316 40.505C31.8147 40.5973 32.1173 40.6117 32.4079 40.5468C32.3656 40.0934 32.3157 39.6432 32.2763 39.1869C32.693 38.9781 33.1132 38.7722 33.5306 38.5629C33.5896 39.072 33.6208 39.5827 33.6859 40.0908C33.7092 40.2195 33.7754 40.3366 33.8737 40.423C33.972 40.5094 34.0966 40.5599 34.2273 40.5665C34.7444 40.6509 35.2746 40.6007 35.7667 40.4205C35.6325 39.8635 35.4464 39.3202 35.2108 38.7979Z" fill="#003C8F"/>
<path d="M9.44501 39.1567C9.83071 38.8852 10.2313 38.6356 10.645 38.4091C10.9126 39.278 11.0556 40.1804 11.0698 41.0894C11.0561 41.6252 10.8986 42.1474 10.6138 42.6014C10.419 42.8891 10.1299 43.0997 9.79637 43.1971C8.99428 43.5084 8.13023 43.6268 7.27396 43.5427C6.60196 43.4632 5.85244 43.1623 5.62036 42.473C5.34459 41.3556 5.49134 40.1756 6.03244 39.1598C6.32308 39.2592 6.61468 39.3568 6.90532 39.4581C6.69772 40.132 6.41044 40.8873 6.68932 41.5795C6.96513 41.8211 7.32326 41.9475 7.68964 41.9325C8.42211 41.963 9.15387 41.8572 9.84772 41.6205C9.76865 40.7912 9.63411 39.9681 9.44501 39.1567Z" fill="#003C8F"/>
<path d="M14.2331 42.6866C14.6196 42.8347 14.9779 43.0478 15.2925 43.3169C15.4126 43.1021 15.539 42.8914 15.6714 42.6847C16.1046 42.8642 16.5008 43.1223 16.8402 43.4457C16.6139 43.7949 16.4082 44.1554 16.1826 44.5063C15.8528 44.2722 15.5081 44.0599 15.1506 43.8708C15.0244 44.0825 14.896 44.2932 14.7698 44.5049C14.3858 44.2514 13.9881 44.0225 13.5938 43.788C13.8071 43.4225 14.0248 43.0577 14.2331 42.6866Z" fill="#003C8F"/>
<path d="M20.5593 42.6904C21.0024 42.8595 21.408 43.1138 21.7531 43.439C21.5287 43.7937 21.3129 44.1525 21.0955 44.5116C20.7184 44.2476 20.3186 44.0217 19.9219 43.7916C20.1376 43.4272 20.3529 43.0615 20.5593 42.6904Z" fill="#003C8F"/>
<path d="M8.49219 45.6319C8.60165 45.5246 8.72008 45.4269 8.84619 45.3398C8.92387 45.8738 8.95311 46.4138 8.93355 46.9531C8.93739 47.1252 8.90523 47.3517 9.08787 47.4521C9.34085 47.4832 9.59716 47.4746 9.84747 47.4264C9.83835 47.2195 9.82635 47.0131 9.81627 46.8081C9.93051 46.7544 10.0459 46.7016 10.1611 46.6478C10.2091 46.8933 10.1491 47.1933 10.3183 47.3973C10.5749 47.5543 10.8905 47.4453 11.1682 47.4173C11.1562 47.2185 11.1423 47.0205 11.1279 46.8228C11.244 46.7599 11.3604 46.6968 11.4775 46.6349C11.5419 46.8955 11.4406 47.2742 11.7091 47.4381C12.1201 47.5136 12.543 47.4939 12.9451 47.3805C12.8786 47.1432 12.8 46.9094 12.7097 46.68C12.8273 46.5943 12.9442 46.5069 13.0603 46.4208C13.1986 46.8122 13.3783 47.2874 13.1155 47.6688C12.9715 47.9172 12.6514 47.9342 12.3955 47.9489C12.0321 48.014 11.6574 47.9464 11.3395 47.7585C11.1467 47.8918 10.9177 47.9629 10.6832 47.962C10.4488 47.9611 10.2203 47.8885 10.0284 47.7537C9.63027 48.0329 8.79435 48.1137 8.62515 47.5411C8.62657 46.9023 8.58214 46.2643 8.49219 45.6319Z" fill="#003C8F"/>
<path d="M19.4922 45.6441C19.6083 45.5685 19.6842 45.3288 19.8462 45.3916C19.9521 46.2368 19.974 47.0903 19.9115 47.9397C19.8193 47.9606 19.7269 47.9824 19.6357 48.0043C19.6452 47.2151 19.5972 46.4263 19.4922 45.6441Z" fill="#003C8F"/>
<path d="M24.8906 45.6353C25.0001 45.5258 25.1093 45.4173 25.2216 45.3112C25.3178 45.9534 25.3579 46.6028 25.3416 47.2519C25.4117 47.5682 25.8077 47.4569 26.0414 47.4665C26.0002 47.324 25.9928 47.1739 26.0198 47.0281C26.0467 46.8823 26.1073 46.7448 26.1967 46.6265C26.1324 46.4448 26.262 46.2782 26.3181 46.1124C26.7184 46.3113 27.0935 46.5572 27.4356 46.8448C27.5152 46.9253 27.5762 47.0223 27.6142 47.129C27.6522 47.2357 27.6662 47.3494 27.6553 47.4621C27.6444 47.5749 27.6088 47.6838 27.5511 47.7812C27.4934 47.8786 27.415 47.9622 27.3213 48.0259C27.0398 48.0211 26.8029 47.8298 26.5334 47.7933C26.1586 47.9425 25.7494 47.9829 25.3526 47.91C25.2422 47.8678 25.1483 47.7911 25.085 47.6913C25.0217 47.5915 24.9922 47.4739 25.001 47.356C25.0235 46.7802 24.9865 46.2035 24.8906 45.6353ZM26.2718 47.1232C26.3601 47.2627 26.5706 47.4206 26.6976 47.2289C26.9009 47.0767 26.6736 46.883 26.5824 46.7445C26.5046 46.7795 26.436 46.8321 26.3821 46.8982C26.3282 46.9643 26.2903 47.042 26.2716 47.1252M27.0797 47.0515C27.0265 47.2056 26.9753 47.3596 26.9261 47.5137C27.0585 47.5617 27.1917 47.6059 27.3261 47.6508C27.4073 47.4016 27.245 47.2108 27.0792 47.0508L27.0797 47.0515Z" fill="#003C8F"/>
<path d="M31.9166 45.7428C32.3294 45.6067 32.7506 45.4912 33.1682 45.366C33.1351 45.51 33.1019 45.658 33.0688 45.8044C32.722 45.9158 32.3745 46.0233 32.0263 46.1294C32.3355 46.3636 32.5936 46.6585 32.7849 46.996C32.8248 47.0837 32.8442 47.1793 32.8416 47.2756C32.839 47.3719 32.8144 47.4663 32.7698 47.5516C32.7248 47.6374 32.6611 47.7118 32.5833 47.7695C32.5056 47.8271 32.4158 47.8664 32.3207 47.8845C31.8748 47.9431 31.3238 48.0748 30.9597 47.7285C30.3848 47.9708 29.7571 48.0606 29.1374 47.9892C28.8837 47.9652 28.546 47.9208 28.4457 47.6472C28.3713 47.2918 28.4026 46.9224 28.5359 46.5847C28.6012 46.6104 28.7325 46.6641 28.7973 46.6912C28.769 46.9291 28.5777 47.37 28.9288 47.4556C29.5453 47.5728 30.1804 47.547 30.7852 47.38C30.7713 47.188 30.7559 46.9944 30.7439 46.8026L31.096 46.6305C31.1613 46.8945 31.048 47.2908 31.3396 47.4391C31.7373 47.4978 32.1426 47.4795 32.5334 47.3853C32.3356 46.9506 32.0088 46.5872 31.5974 46.3447C31.648 46.1284 31.6406 45.8083 31.9166 45.7428Z" fill="#003C8F"/>
<path d="M38.9824 45.7826C39.4144 45.6067 39.8725 45.5109 40.3156 45.3679C40.2824 45.5157 40.2494 45.6641 40.2165 45.8131C39.8687 45.9144 39.5219 46.0229 39.1739 46.1232C39.5742 46.3911 39.8678 46.7911 40.0036 47.2533C40.003 47.3859 39.9611 47.5149 39.8837 47.6225C39.8062 47.7301 39.6971 47.8108 39.5716 47.8533C39.2136 47.9556 38.8365 47.9721 38.4709 47.9013C38.4321 48.1178 38.3354 48.3198 38.191 48.4857C38.0466 48.6516 37.8599 48.7753 37.6508 48.8436C37.4424 48.8139 37.2407 48.7482 37.0547 48.6494C37.0748 48.581 37.1137 48.4444 37.1339 48.3768C37.2366 48.4078 37.3444 48.4181 37.4511 48.4072C37.5579 48.3964 37.6614 48.3645 37.7557 48.3134C37.8497 48.2627 37.9326 48.1937 37.9995 48.1105C38.0664 48.0272 38.1161 47.9315 38.1455 47.8288C38.0827 47.5657 37.9965 47.3087 37.888 47.0608C37.9973 46.9724 38.1069 46.8844 38.217 46.7968C38.3346 47.0246 38.3293 47.418 38.649 47.4629C38.987 47.51 39.3314 47.471 39.6503 47.3496C39.5701 46.8962 39.0743 46.6476 38.7721 46.3255C38.7805 46.1366 38.7844 45.8839 38.9824 45.7826Z" fill="#003C8F"/>
<path d="M16.7487 45.5395C16.8749 45.6079 17.0014 45.6775 17.1286 45.7454C17.0604 45.8605 16.9915 45.9751 16.9219 46.0893L16.5859 45.8606C16.6419 45.7531 16.6951 45.6441 16.7487 45.5395Z" fill="#003C8F"/>
<path d="M35.3586 45.5304C35.4827 45.6079 35.607 45.6864 35.7328 45.7639C35.6637 45.8695 35.5945 45.9756 35.5261 46.0812L35.1875 45.8666C35.2451 45.7538 35.3027 45.6417 35.3586 45.5304Z" fill="#003C8F"/>
<path d="M18.7572 45.6669C18.8887 45.7517 19.0176 45.8366 19.1482 45.9233C19.0719 46.0418 18.9958 46.1611 18.9199 46.2789C18.7929 46.1977 18.6659 46.1171 18.5391 46.0373C18.6106 45.9134 18.6838 45.7901 18.7572 45.6669Z" fill="#003C8F"/>
<path d="M11.1655 45.8705C11.2969 45.9469 11.4278 46.0245 11.5584 46.103C11.4883 46.2281 11.4168 46.3514 11.347 46.4769C11.2154 46.3903 11.083 46.3063 10.9531 46.2216L11.1655 45.8705Z" fill="#003C8F"/>
<path d="M16.3594 46.3627L16.5699 45.9998C16.7014 46.0764 16.8312 46.1539 16.9627 46.2304C16.9959 46.1676 17.0631 46.0401 17.0971 45.9799C17.2275 46.0655 17.3588 46.1503 17.491 46.2343C17.4175 46.3507 17.347 46.4668 17.2723 46.5835L16.8843 46.3617C16.8473 46.4212 16.7719 46.5415 16.7352 46.6017C16.6099 46.5216 16.4847 46.4419 16.3594 46.3627Z" fill="#003C8F"/>
<path d="M35.1764 46.0075C35.3076 46.0795 35.4404 46.1544 35.5736 46.2273L35.7317 45.9847C35.857 46.0713 35.9792 46.1635 36.1078 46.2472C36.0296 46.3596 35.9535 46.4726 35.8752 46.5854C35.7528 46.5108 35.6316 46.4376 35.5092 46.3646C35.4689 46.4232 35.3868 46.5405 35.3458 46.5991C35.2205 46.5225 35.094 46.446 34.9688 46.3704C35.0383 46.2482 35.108 46.127 35.1764 46.0075Z" fill="#003C8F"/>
<path d="M37.9575 46.0675L38.3455 46.2991C38.2735 46.4232 38.2015 46.5477 38.1341 46.672C38.0026 46.5916 37.8723 46.5122 37.7422 46.432C37.8132 46.3099 37.8855 46.1899 37.9575 46.0675Z" fill="#003C8F"/>
<path d="M20.9088 46.1616C21.1511 46.2735 21.3541 46.456 21.4911 46.6851C21.6281 46.9142 21.6928 47.1793 21.6768 47.4458C21.5606 47.9894 20.8687 48.0422 20.4242 47.9258C20.1086 47.7765 20.2661 47.3769 20.2642 47.1098L20.5042 47.1578C20.509 47.2344 20.5181 47.3865 20.5234 47.4621C20.8215 47.5104 21.1266 47.4931 21.4174 47.4112C21.295 47.0726 21.0633 46.7844 20.7588 46.5921C20.8075 46.4469 20.8608 46.3039 20.9088 46.1616Z" fill="#003C8F"/>
<path d="M29.9427 46.1707C30.0769 46.2433 30.2106 46.3163 30.3437 46.3896C30.2737 46.517 30.2024 46.643 30.1323 46.7702C30.0037 46.6946 29.8767 46.619 29.7483 46.5425L29.5949 46.7803L29.2109 46.5487C29.2829 46.4256 29.3549 46.3032 29.4243 46.181L29.8143 46.4227C29.8498 46.3596 29.9122 46.2336 29.9427 46.1707Z" fill="#003C8F"/>
<path d="M7.02277 46.2326C7.16317 46.3072 7.30044 46.3867 7.4358 46.4704C7.36236 46.5917 7.28885 46.7133 7.21525 46.8352L6.82812 46.6084L7.02277 46.2326Z" fill="#003C8F"/>
<path d="M23.4384 47.2528C23.4619 47.0558 23.5358 46.8681 23.6529 46.7079C23.77 46.5477 23.9264 46.4204 24.107 46.3382C24.3377 46.2636 24.5191 46.4395 24.6912 46.558C24.623 46.6656 24.5551 46.7726 24.487 46.8811C24.1862 46.6286 23.863 46.8892 23.7322 47.1813C24.0201 47.2527 24.2992 47.3561 24.5642 47.4895C24.6045 47.5734 24.6256 47.6653 24.626 47.7584C24.6264 47.8515 24.6062 47.9435 24.5666 48.0278C24.5269 48.1124 24.469 48.1872 24.397 48.2468C24.3251 48.3065 24.2409 48.3497 24.1505 48.3732C23.6623 48.5472 22.9985 48.6585 22.5905 48.2709C22.2946 47.8296 22.4945 47.272 22.6356 46.8088C22.7047 46.8288 22.8408 46.8684 22.9094 46.8873C22.788 47.1911 22.7564 47.5234 22.8182 47.8447C22.9874 48.1111 23.3616 48.0424 23.6342 48.0424C23.8457 48.004 24.1416 48.0168 24.2496 47.7909C23.9587 47.6676 23.3834 47.6976 23.4384 47.2528Z" fill="#003C8F"/>
<path d="M18.7236 46.6776C18.8412 46.5919 18.9591 46.5079 19.0795 46.4251C19.243 46.8532 19.4124 47.3992 19.0416 47.7768C18.8494 47.8881 18.6312 47.9468 18.4091 47.9468C18.187 47.9468 17.9688 47.8881 17.7766 47.7768C17.653 47.8807 17.4972 47.9384 17.3358 47.9401C17.1743 47.9417 17.0174 47.8872 16.8917 47.7859C16.7906 47.8567 16.6755 47.9051 16.5542 47.9278C16.4329 47.9504 16.3081 47.9468 16.1883 47.9172C16.1531 48.0973 16.0826 48.2686 15.9807 48.4212C15.5988 48.6698 15.1402 48.7728 14.6887 48.7113C14.5531 48.7093 14.4208 48.6685 14.3077 48.5936C14.1945 48.5187 14.1052 48.413 14.0503 48.2889C13.9598 47.852 14.0147 47.3974 14.2066 46.9946L14.4521 47.0812C14.4127 47.4172 14.2121 47.8 14.4238 48.1171C14.6502 48.2076 14.8931 48.2501 15.1368 48.2419C15.3806 48.2336 15.62 48.1748 15.8398 48.0691C15.8086 47.6932 15.7518 47.32 15.6696 46.9519C15.7848 46.8816 15.9003 46.8091 16.0155 46.7412C16.1019 47.0128 16.0875 47.5147 16.4955 47.4736C16.8135 47.4736 16.7693 47.0978 16.8264 46.889L17.13 46.877C17.1401 47.0539 17.0547 47.2548 17.143 47.4187C17.2867 47.4722 17.4426 47.4839 17.5927 47.4525C17.5726 47.2418 17.5515 47.0311 17.5275 46.8204C17.6489 46.7556 17.7701 46.69 17.8915 46.6262C17.9328 46.8806 17.8824 47.176 18.0406 47.3976C18.339 47.5018 18.665 47.4947 18.9586 47.3776C18.8944 47.1398 18.8159 46.906 18.7236 46.6776Z" fill="#003C8F"/>
<path d="M36.1475 46.6792C36.2651 46.6056 36.3551 46.4584 36.5075 46.4632C36.6556 46.8828 36.8072 47.4108 36.5075 47.8012C36.394 47.9002 36.2481 47.9538 36.0976 47.952C35.947 47.9501 35.8025 47.8929 35.6915 47.7912C35.5691 47.6661 35.4515 47.8668 35.3528 47.9205C35.2381 47.9558 35.116 47.9599 34.9991 47.9323C34.8823 47.9047 34.7749 47.8465 34.688 47.7636C34.5595 47.8533 34.4126 47.9134 34.258 47.9396C34.1034 47.9657 33.945 47.9573 33.794 47.9148C33.7524 48.1193 33.6608 48.3103 33.5273 48.4708C33.3939 48.6312 33.2227 48.7561 33.0292 48.8342C32.8064 48.8383 32.5872 48.7775 32.3984 48.6592C32.4076 48.5899 32.4253 48.4514 32.4335 48.383C32.6329 48.3801 32.8576 48.4644 33.0378 48.3463C33.2241 48.2203 33.3785 48.0526 33.4885 47.8564C33.404 47.59 33.315 47.3246 33.2137 47.0645C33.314 46.9769 33.4141 46.8904 33.5154 46.8028C33.6625 47.0764 33.712 47.5562 34.1394 47.4806C34.5203 47.55 34.6122 47.1624 34.6674 46.8806C34.7394 46.8806 34.8834 46.8768 34.9554 46.8744C34.931 47.0317 34.926 47.1915 34.9405 47.3501C34.9699 47.3906 35.0083 47.4236 35.0527 47.4467C35.0971 47.4697 35.1462 47.4821 35.1962 47.4828C35.2462 47.4835 35.2957 47.4725 35.3408 47.4507C35.3858 47.4289 35.4251 47.3969 35.4556 47.3573C35.4999 47.1991 35.5344 47.0383 35.5588 46.8758L35.8518 46.8787C35.8379 47.0467 35.8235 47.2159 35.8086 47.3848C35.9813 47.4687 36.1769 47.4931 36.3649 47.4542C36.3099 47.1912 36.237 46.9322 36.1468 46.679L36.1475 46.6792Z" fill="#003C8F"/>
<path d="M7.74665 46.7551C7.87097 46.6896 7.99313 46.6219 8.11457 46.5545C8.21057 47.0777 8.41913 47.6769 8.11073 48.1716C7.95447 48.3028 7.77367 48.4015 7.57886 48.4622C7.38404 48.5228 7.17911 48.544 6.97601 48.5246C6.81859 48.5464 6.65822 48.5235 6.51321 48.4584C6.3682 48.3934 6.24439 48.2889 6.15593 48.1569C6.04015 47.7045 6.08704 47.2257 6.28841 46.8043C6.34841 46.8233 6.46961 46.8619 6.52841 46.8818C6.50441 47.22 6.30785 47.5953 6.49625 47.9138C6.72281 48.0104 6.96745 48.0572 7.21366 48.0512C7.45987 48.0452 7.70193 47.9865 7.92353 47.879C7.89235 47.5005 7.83323 47.1249 7.74665 46.7551Z" fill="#003C8F"/>
<path d="M42.0736 46.7582C42.1207 46.7124 42.1782 46.6788 42.2412 46.6601C42.3043 46.6414 42.3708 46.6383 42.4353 46.651C42.4998 46.6638 42.5602 46.6919 42.6114 46.7331C42.6626 46.7743 42.703 46.8273 42.7292 46.8876C42.8094 47.0192 42.8558 47.1686 42.8642 47.3224C42.8725 47.4763 42.8427 47.6298 42.7772 47.7693C42.5677 48.1718 41.9975 47.9186 41.7428 47.6846C41.6466 47.7951 41.5204 47.8753 41.3796 47.9155C41.2387 47.9558 41.0892 47.9544 40.9492 47.9114C40.9093 48.1205 40.816 48.3158 40.6782 48.4781C40.5404 48.6403 40.3628 48.7641 40.1629 48.8373C39.9399 48.8272 39.7228 48.7618 39.5312 48.647C39.5524 48.5796 39.5956 48.4444 39.6167 48.3768C39.8232 48.4339 40.0436 48.411 40.2339 48.3126C40.4242 48.2141 40.5703 48.0474 40.6429 47.8459C40.5671 47.5799 40.4741 47.3192 40.3643 47.0654C40.4745 46.9741 40.5852 46.8829 40.6962 46.7918C40.8162 47.0297 40.8176 47.4549 41.1642 47.4739C41.6274 47.5147 41.7949 47.0205 42.0712 46.7561M41.979 47.3397C42.1543 47.4567 42.3548 47.5302 42.5641 47.5543C42.557 47.366 42.4834 47.1864 42.3565 47.0472C42.1667 47.0201 42.0884 47.2245 41.9814 47.3402L41.979 47.3397Z" fill="#003C8F"/>
<path d="M12.5028 48.1723C12.6324 48.258 12.7603 48.3429 12.8899 48.4276C12.8155 48.5443 12.7428 48.6612 12.6684 48.7778C12.5404 48.7004 12.4113 48.6235 12.2812 48.5472C12.3549 48.4219 12.4287 48.2969 12.5028 48.1723Z" fill="#003C8F"/>
<path d="M9.375 48.5527C9.44412 48.4293 9.51332 48.3065 9.5826 48.1841L9.9414 48.4128C9.99946 48.3286 10.0698 48.2535 10.15 48.1901C10.2702 48.2628 10.3863 48.3422 10.4977 48.4279L10.2817 48.7757C10.1555 48.7001 10.028 48.6235 9.90084 48.5479C9.86388 48.6098 9.78852 48.7339 9.75084 48.7953C9.62588 48.7137 9.5006 48.6329 9.375 48.5527Z" fill="#003C8F"/>
</g>
</svg>
